HIERARCHY
ROOT Hips
{
	OFFSET 0.000000 0.000000 0.000000
	CHANNELS 6 Xposition Yposition Zposition Zrotation Yrotation Xrotation 
	JOINT LowerBack
	{
		OFFSET 0.000000 0.000000 0.000000
		CHANNELS 3 Zrotation Yrotation Xrotation
		JOINT Spine
		{
			OFFSET 0.028270 2.035590 -0.193380
			CHANNELS 3 Zrotation Yrotation Xrotation
			JOINT Spine1
			{
				OFFSET 0.056720 2.048850 -0.042750
				CHANNELS 3 Zrotation Yrotation Xrotation
				JOINT Neck
				{
					OFFSET 0.000000 0.000000 0.000000
					CHANNELS 3 Zrotation Yrotation Xrotation
					JOINT Neck1
					{
						OFFSET -0.054170 1.746240 0.172020
						CHANNELS 3 Zrotation Yrotation Xrotation
						JOINT Head
						{
							OFFSET 0.104070 1.761360 -0.123970
							CHANNELS 3 Zrotation Yrotation Xrotation
							End Site
							{
								OFFSET 0.000000 0.000000 0.000000
							}
						}
					}
				}
				JOINT LeftShoulder
				{
					OFFSET 0.000000 0.000000 0.000000
					CHANNELS 3 Zrotation Yrotation Xrotation
					JOINT LeftArm
					{
						OFFSET 3.362410 1.200890 -0.311210
						CHANNELS 3 Zrotation Yrotation Xrotation
						JOINT LeftForeArm
						{
							OFFSET 4.983000 -0.000000 -0.000000
							CHANNELS 3 Zrotation Yrotation Xrotation
							JOINT LeftHand
							{
								OFFSET 3.483560 -0.000000 -0.000000
								CHANNELS 3 Zrotation Yrotation Xrotation
								JOINT LeftFingerBase
								{
									OFFSET 0.000000 0.000000 0.000000
									CHANNELS 3 Zrotation Yrotation Xrotation
									JOINT LeftHandIndex1
									{
										OFFSET 0.715260 -0.000000 -0.000000
										CHANNELS 3 Zrotation Yrotation Xrotation
										End Site
										{
											OFFSET 0.000000 0.000000 0.000000
										}
									}
								}
								JOINT LThumb
								{
									OFFSET 0.000000 0.000000 0.000000
									CHANNELS 3 Zrotation Yrotation Xrotation
									End Site
									{
										OFFSET 0.000000 0.000000 0.000000
									}
								}
							}
						}
					}
				}
				JOINT RightShoulder
				{
					OFFSET 0.000000 0.000000 0.000000
					CHANNELS 3 Zrotation Yrotation Xrotation
					JOINT RightArm
					{
						OFFSET -3.136600 1.374050 -0.404650
						CHANNELS 3 Zrotation Yrotation Xrotation
						JOINT RightForeArm
						{
							OFFSET -5.241900 -0.000000 -0.000000
							CHANNELS 3 Zrotation Yrotation Xrotation
							JOINT RightHand
							{
								OFFSET -3.444170 -0.000000 -0.000000
								CHANNELS 3 Zrotation Yrotation Xrotation
								JOINT RightFingerBase
								{
									OFFSET 0.000000 0.000000 0.000000
									CHANNELS 3 Zrotation Yrotation Xrotation
									JOINT RightHandIndex1
									{
										OFFSET -0.622530 -0.000000 -0.000000
										CHANNELS 3 Zrotation Yrotation Xrotation
										End Site
										{
											OFFSET 0.000000 0.000000 0.000000
										}
									}
								}
								JOINT RThumb
								{
									OFFSET 0.000000 0.000000 0.000000
									CHANNELS 3 Zrotation Yrotation Xrotation
									End Site
									{
										OFFSET 0.000000 0.000000 0.000000
									}
								}
							}
						}
					}
				}
			}
		}
	}
}
}
MOTION
Frames: 11
Frame Time: 0.008333
-20.896295 15.817841 -0.539673 9.265871 85.830895 37.511393 -10.066390 1.795232 -2.523661 -2.632068 2.335494 -2.944936 -3.923999 2.226717 3.058179 7.878099 -4.814655 -7.550585 -1.612339 -0.114352 -0.147007 0.000000 0.000000 0.000000 -3.849114 20.695130 2.259574 -46.054558 19.203329 8.570134 -4.991127 -24.615860 -0.018509 -7.973086 1.228339 -0.091066 -0.169701 -0.107692 -0.000000 0.000000 0.000000 0.000000 0.000000 0.000000 0.000000 7.315718 0.087199 2.024871 37.915338 41.660173 30.160437 0.499932 80.724417 0.032528 6.950960 9.133660 0.590143 -0.105886 -0.412552 0.000000 0.000000 0.000000 0.000000 0.000000 0.000000 0.000000 
-20.685120 15.823986 -0.560159 10.089274 85.905616 38.411419 -10.375252 1.789971 -2.475950 -2.695583 2.350638 -2.949690 -3.909379 2.240511 3.019000 7.928435 -4.805444 -7.560577 -1.589554 -0.112045 -0.153450 0.000000 0.000000 0.000000 -4.228950 20.507263 2.254734 -46.186359 18.423495 8.650972 -4.996152 -24.500126 -0.018727 -8.068995 1.339405 -0.099771 -0.168330 -0.105802 -0.000000 0.000000 0.000000 0.000000 0.000000 0.000000 0.000000 7.219044 0.085892 2.054885 38.287483 40.320811 30.852792 0.517291 80.643051 0.033143 7.044674 9.065188 0.592962 -0.101543 -0.405084 0.000000 0.000000 0.000000 0.000000 0.000000 0.000000 0.000000 
-20.474981 15.834773 -0.582017 10.808231 85.973061 39.172333 -10.642158 1.783470 -2.397670 -2.750315 2.361959 -2.949888 -3.898650 2.250910 2.971383 7.955738 -4.782338 -7.559752 -1.569323 -0.110070 -0.156993 0.000000 0.000000 0.000000 -4.640426 20.290026 2.249497 -46.331542 17.585499 8.763825 -4.999400 -24.401685 -0.018882 -8.163203 1.445796 -0.108275 -0.166958 -0.103687 -0.000000 0.000000 0.000000 0.000000 0.000000 0.000000 0.000000 7.102978 0.096161 2.075885 38.735305 38.928718 31.586862 0.540566 80.414486 0.033574 7.135404 9.002570 0.595584 -0.097001 -0.396359 0.000000 0.000000 0.000000 0.000000 0.000000 0.000000 0.000000 
-20.266162 15.849913 -0.605531 11.395668 86.034395 39.767093 -10.860843 1.773646 -2.292782 -2.794967 2.366881 -2.945528 -3.893385 2.255314 2.918211 7.962197 -4.746129 -7.549537 -1.553015 -0.108527 -0.157902 0.000000 0.000000 0.000000 -5.079633 20.053303 2.243701 -46.494217 16.691850 8.904540 -5.000408 -24.329449 -0.018962 -8.253322 1.545817 -0.116474 -0.165594 -0.101346 -0.000000 0.000000 0.000000 0.000000 0.000000 0.000000 0.000000 6.977380 0.115405 2.087922 39.238885 37.504596 32.342195 0.569905 80.037657 0.033840 7.236437 8.946864 0.599305 -0.092668 -0.386426 0.000000 0.000000 0.000000 0.000000 0.000000 0.000000 0.000000 
-20.059036 15.868899 -0.630518 11.941542 86.093109 40.286101 -11.033825 1.756837 -2.163683 -2.829531 2.361830 -2.936678 -3.892241 2.250106 2.860721 7.946969 -4.702771 -7.530268 -1.539445 -0.107328 -0.156152 0.000000 0.000000 0.000000 -5.538857 19.796543 2.237883 -46.679461 15.754363 9.069839 -4.998528 -24.294899 -0.018937 -8.333809 1.635196 -0.123870 -0.164196 -0.098749 -0.000000 0.000000 0.000000 0.000000 0.000000 0.000000 0.000000 6.838953 0.134622 2.090480 39.791499 36.069820 33.115094 0.605638 79.507598 0.033879 7.330251 8.903283 0.603126 -0.088267 -0.375466 0.000000 0.000000 0.000000 0.000000 0.000000 0.000000 0.000000 
-19.853972 15.891331 -0.656842 12.496571 86.153485 40.784876 -11.161969 1.729692 -2.016759 -2.854074 2.343511 -2.923775 -3.895533 2.231932 2.801860 7.913796 -4.657524 -7.504158 -1.528977 -0.106478 -0.152276 0.000000 0.000000 0.000000 -6.007022 19.524285 2.232671 -46.894401 14.776269 9.249935 -4.993449 -24.302787 -0.018790 -8.400744 1.711978 -0.130162 -0.162742 -0.095853 -0.000000 0.000000 0.000000 0.000000 0.000000 0.000000 0.000000 6.695800 0.146120 2.084302 40.379026 34.646001 33.891166 0.647686 78.827135 0.033695 7.415698 8.874360 0.607048 -0.083847 -0.363648 0.000000 0.000000 0.000000 0.000000 0.000000 0.000000 0.000000 
-19.651189 15.916996 -0.684535 13.048190 86.219446 41.259335 -11.242393 1.689896 -1.861124 -2.868344 2.309504 -2.908221 -3.906031 2.198285 2.743445 7.869556 -4.604944 -7.472910 -1.523963 -0.106147 -0.146702 0.000000 0.000000 0.000000 -6.477660 19.244471 2.229105 -47.139293 13.756458 9.437592 -4.985409 -24.359654 -0.018527 -8.455475 1.777173 -0.135552 -0.161277 -0.092646 -0.000000 0.000000 0.000000 0.000000 0.000000 0.000000 0.000000 6.563573 0.155541 2.070483 40.986074 33.232558 34.630255 0.695423 78.015815 0.033409 7.532359 8.852193 0.613965 -0.080220 -0.350985 0.000000 0.000000 0.000000 0.000000 0.000000 0.000000 0.000000 
-19.450846 15.945373 -0.712824 13.755708 86.296087 41.874573 -11.286385 1.634213 -1.701094 -2.874070 2.257393 -2.890309 -3.920261 2.146669 2.686857 7.814670 -4.560209 -7.437920 -1.521673 -0.106100 -0.139784 0.000000 0.000000 0.000000 -6.931559 18.946331 2.228171 -47.427407 12.705529 9.616549 -4.974021 -24.462078 -0.018097 -8.489500 1.824595 -0.139336 -0.159703 -0.089017 -0.000000 0.000000 0.000000 0.000000 0.000000 0.000000 0.000000 6.436124 0.144253 2.049949 41.611458 31.857886 35.345387 0.748838 77.068985 0.032909 7.630036 8.845701 0.620184 -0.076389 -0.337846 0.000000 0.000000 0.000000 0.000000 0.000000 0.000000 0.000000 
-19.253356 15.976394 -0.741678 14.574747 86.385493 42.594939 -11.290435 1.562542 -1.544577 -2.871057 2.187007 -2.871856 -3.941426 2.076828 2.631664 7.755498 -4.512072 -7.399680 -1.524652 -0.106537 -0.131658 0.000000 0.000000 0.000000 -7.366536 18.635621 2.231122 -47.751900 11.620368 9.785725 -4.959978 -24.613608 -0.017523 -8.506799 1.856538 -0.141617 -0.158096 -0.084971 -0.000000 0.000000 0.000000 0.000000 0.000000 0.000000 0.000000 6.326493 0.126200 2.023466 42.247263 30.502917 35.988245 0.806995 76.014590 0.032334 7.756017 8.841719 0.628900 -0.073260 -0.324204 0.000000 0.000000 0.000000 0.000000 0.000000 0.000000 0.000000 
-19.058553 16.009772 -0.770283 15.609936 86.486914 43.529097 -11.266925 1.474802 -1.393938 -2.861633 2.099145 -2.852833 -3.966518 1.989503 2.579112 7.694358 -4.476469 -7.359345 -1.530762 -0.107268 -0.122687 0.000000 0.000000 0.000000 -7.761922 18.297735 2.238266 -48.128873 10.508387 9.921672 -4.943157 -24.799071 -0.016759 -8.500264 1.867627 -0.141991 -0.156349 -0.080386 -0.000000 0.000000 0.000000 0.000000 0.000000 0.000000 0.000000 6.233445 0.083394 1.993536 42.888610 29.196805 36.575501 0.869631 74.849795 0.031596 7.858722 8.847476 0.636315 -0.069815 -0.310418 0.000000 0.000000 0.000000 0.000000 0.000000 0.000000 0.000000 
-18.867003 16.045566 -0.798650 16.774802 86.596561 44.593987 -11.213068 1.373965 -1.251764 -2.845788 1.996667 -2.834437 -3.997907 1.887523 2.527259 7.634951 -4.441965 -7.316153 -1.541840 -0.108447 -0.112696 0.000000 0.000000 0.000000 -8.120695 17.935012 2.250248 -48.547469 9.366577 10.029425 -4.924307 -25.017108 -0.015832 -8.474169 1.859534 -0.140661 -0.154537 -0.075286 -0.000000 0.000000 0.000000 0.000000 0.000000 0.000000 0.000000 6.164127 0.031252 1.960913 43.531453 27.917757 37.068631 0.935875 73.599259 0.030789 7.969370 8.850984 0.644230 -0.066635 -0.296484 0.000000 0.000000 0.000000 0.000000 0.000000 0.000000 0.000000 
